<svg width="80" height="80" viewBox="0 0 80 80" fill="none" xmlns="http://www.w3.org/2000/svg">
<g id="Frame 29">
<g id="icon-delivery">
<g id="Group 45">
<path id="Rectangle Copy 37" d="M49 23H42C40.8954 23 40 23.8954 40 25V25C40 26.1046 40.8954 27 42 27H49V23Z" stroke="black" stroke-width="2"/>
<g id="Group 29 Copy 3">
<path id="Path" d="M33.5445 61.1655C33.84 62.0567 34 63.0097 34 64.0001C34 68.9707 29.9706 73.0001 25 73.0001C20.0294 73.0001 16 68.9707 16 64.0001C16 62.9447 16.1817 61.9317 16.5154 60.9907" stroke="black" stroke-width="2"/>
<path id="Path_2" d="M27.8771 61.2213C28.5723 61.9409 29 62.9206 29 64.0002C29 66.2094 27.2091 68.0002 25 68.0002C22.7909 68.0002 21 66.2094 21 64.0002C21 62.8674 21.471 61.8445 22.2278 61.1167" stroke="black" stroke-width="2"/>
</g>
<g id="Group 29 Copy 2">
<path id="Path_3" d="M72 64C72 68.9706 67.9706 73 63 73C58.0294 73 54 68.9706 54 64" stroke="black" stroke-width="2"/>
<path id="Path_4" d="M67 64C67 66.2091 65.2091 68 63 68C60.7909 68 59 66.2091 59 64" stroke="black" stroke-width="2"/>
</g>
<path id="Path Copy 3" fill-rule="evenodd" clip-rule="evenodd" d="M51 64C51 57.3726 56.3726 52 63 52C69.6274 52 75 57.3726 75 64H51Z" stroke="black" stroke-width="1.84615" stroke-linejoin="round"/>
<rect id="Rectangle Copy 36" width="17" height="5" rx="2.5" transform="matrix(-1 0 0 1 42 37)" stroke="black" stroke-width="2"/>
<path id="Path Copy 2" fill-rule="evenodd" clip-rule="evenodd" d="M55 31C51.6863 31 49 28.3137 49 25C49 21.6863 51.6863 19 55 19V31Z" stroke="black" stroke-width="2" stroke-linecap="round" stroke-linejoin="round"/>
<path id="Path Copy" d="M55 21C57.2091 21 59 22.7909 59 25C59 27.2091 57.2091 29 55 29" stroke="black" stroke-width="2" stroke-linecap="round" stroke-linejoin="round"/>
<path id="Path 4 Copy" d="M65.5 52C65.5 52 67.5 38 58 28.5" stroke="black" stroke-width="2"/>
<path id="Path 5 Copy" d="M53.5 30.5C53.5 30.5 63.5 48 50 51C41 52 40 42 40 42" stroke="black" stroke-width="2"/>
<path id="Path 6 Copy" d="M51 61H13.5C13.5 61 16 47.5 26 41.5" stroke="black" stroke-width="2" stroke-linecap="round" stroke-linejoin="round"/>
<path id="Shape Copy" d="M15 56C14.4477 56 14 55.5523 14 55C14 54.4477 14.4477 54 15 54V56ZM20.5 54C21.0523 54 21.5 54.4477 21.5 55C21.5 55.5523 21.0523 56 20.5 56V54ZM35 56C34.4477 56 34 55.5523 34 55C34 54.4477 34.4477 54 35 54V56ZM46.5 54C47.0523 54 47.5 54.4477 47.5 55C47.5 55.5523 47.0523 56 46.5 56V54ZM15 54H20.5V56H15V54ZM35 54H46.5V56H35V54Z" fill="black"/>
<rect id="Rectangle Copy 35" width="16" height="16" transform="matrix(-1 0 0 1 22 21)" stroke="black" stroke-width="2"/>
<rect id="Rectangle Copy 34" width="4" height="6" transform="matrix(-1 0 0 1 16 21)" stroke="#E52D2D" stroke-width="2"/>
<rect id="Rectangle Copy 32" width="4" height="6" transform="matrix(-1 0 0 1 21 5)" stroke="#E52D2D" stroke-width="2"/>
<rect id="Rectangle Copy 33" width="16" height="16" transform="matrix(-1 0 0 1 27 5)" stroke="black" stroke-width="2"/>
<path id="Path 7 Copy" d="M17.5 49L9 39.5V37" stroke="black" stroke-width="2" stroke-linecap="round" stroke-linejoin="round"/>
<path id="Rectangle Copy 31" fill-rule="evenodd" clip-rule="evenodd" d="M26 32H22V37H27L26 32Z" stroke="black" stroke-width="2" stroke-linejoin="round"/>
<path id="Path 8 Copy" d="M63 73H9" stroke="black" stroke-width="2" stroke-linecap="round" stroke-linejoin="round"/>
</g>
</g>
</g>
</svg>
