<svg width="80" height="80" viewBox="0 0 80 80" fill="none" xmlns="http://www.w3.org/2000/svg">
<g id="Frame 28">
<g id="icon-order">
<g id="Group 44">
<g id="Group 20">
<path id="Path" d="M9 45.3846V35.6923C9 33.6531 10.7909 32 13 32C15.2091 32 17 33.6531 17 35.6923V52.3077C17 54.3469 15.2091 56 13 56C10.7909 56 9 54.3469 9 52.3077V50" stroke="black" stroke-width="2" stroke-linecap="round"/>
<path id="Path_2" d="M9 36C4.58172 36 1 39.5817 1 44C1 48.4183 4.58172 52 9 52" stroke="black" stroke-width="2"/>
</g>
<g id="Group 20 Copy">
<path id="Path_3" d="M71 45.3846V35.6923C71 33.6531 69.2091 32 67 32C64.7909 32 63 33.6531 63 35.6923V52.3077C63 54.3469 64.7909 56 67 56C69.2091 56 71 54.3469 71 52.3077V50" stroke="black" stroke-width="2" stroke-linecap="round"/>
<path id="Path_4" d="M71 36C75.4183 36 79 39.5817 79 44C79 48.4183 75.4183 52 71 52" stroke="black" stroke-width="2"/>
</g>
<path id="Shape" d="M14 32.9999C14 26.9234 16.0833 21.3363 19.5753 16.9099L18.0051 15.6711C14.2447 20.4378 12 26.4581 12 32.9999H14ZM60.4362 16.9245C63.9213 21.3486 66 26.9301 66 32.9999H68C68 26.4653 65.7603 20.4511 62.0073 15.6869L60.4362 16.9245Z" fill="black"/>
<path id="Path_5" d="M40.1833 3C48.2957 3 55.9021 6.2391 61.4982 11.889C62.6642 13.0661 62.6551 14.9656 61.4779 16.1316C60.3008 17.2975 58.4013 17.2885 57.2353 16.1113C52.7551 11.5881 46.6782 9 40.1833 9C33.6885 9 27.6116 11.588 23.1314 16.1112C21.9654 17.2883 20.066 17.2974 18.8888 16.1314C17.7117 14.9654 17.7026 13.0659 18.8686 11.8888C24.4647 6.23903 32.071 3 40.1833 3Z" stroke="black" stroke-width="2"/>
<rect id="Rectangle" x="37" y="71" width="10" height="6" rx="3" stroke="black" stroke-width="2"/>
<path id="Path 2" d="M67 56V56C67 65.9411 58.9411 74 49 74H47" stroke="black" stroke-width="2"/>
<path id="Combined Shape" d="M41 57C49.2843 57 56 50.2843 56 42C56 33.7157 49.2843 27 41 27C32.7157 27 26 33.7157 26 42C26 45.7541 27.3791 49.186 29.6583 51.8169L27 61L35.8937 56.1085C37.4876 56.6854 39.207 57 41 57Z" stroke="black" stroke-width="2" stroke-linejoin="round"/>
<g id="Group 21">
<circle id="Oval" cx="34" cy="42" r="2" fill="#E52D2D"/>
<circle id="Oval Copy 4" cx="40" cy="42" r="2" fill="#E52D2D"/>
<circle id="Oval Copy 5" cx="46" cy="42" r="2" fill="#E52D2D"/>
</g>
</g>
</g>
</g>
</svg>
